# xmcd
#
# Track frame offsets:
#	150
#	5247
#	23115
#	33074
#	43242
#	59931
#	72078
#	88004
#	127387
#	143624
#	188666
#	204759
#	218437
#	250793
#	271611
#
# Disc length: 3908 seconds
#
# Revision: 0
# Processed by: cddbd v1.5.2PL0 Copyright (c) Steve Scherf et al.
# Submitted via: audiograbber 1.83.01
#
DISCID=d20f420f
DTITLE=Ike and Tina Turner - Live In Paris - Olympia 1971
DYEAR=1971
DGENRE=Soul
TTITLE0=Grumbling
TTITLE1=You Got Me Hummin'
TTITLE2=Everyday People
TTITLE3=Shake A Tail Feather
TTITLE4=Gimme Some Loving - Sweet Soul Music
TTITLE5=Son Of A Preacher Man
TTITLE6=Come Together
TTITLE7=Proud Mary
TTITLE8=Love Like Yours Don't Come Knockin' Everyday
TTITLE9=I Smell Trouble
TTITLE10=Respect
TTITLE11=Honky Tonk Women
TTITLE12=I've Been Loving You Too Long
TTITLE13=I Want To Take You Higher
TTITLE14=Land Of 1000 Dances
EXTD=
EXTT0=
EXTT1=
EXTT2=
EXTT3=
EXTT4=
EXTT5=
EXTT6=
EXTT7=
EXTT8=
EXTT9=
EXTT10=
EXTT11=
EXTT12=
EXTT13=
EXTT14=
PLAYORDER=
